<svg xmlns="http://www.w3.org/2000/svg" viewBox="0 0 62 33"><defs><style>.cls-1{fill:#8d9fd4;}.cls-2{fill:#1f42ab;}.cls-3{fill:#b9cdee;}</style></defs><g id="Layer_2" data-name="Layer 2"><g id="Layer_1-2" data-name="Layer 1"><rect class="cls-1" width="62" height="33" rx="4"/><path class="cls-2" d="M36.5,7.83a12.14,12.14,0,0,1,17.14,0,11.68,11.68,0,0,1,3.54,8.57A11.66,11.66,0,0,1,53.64,25,12.14,12.14,0,0,1,36.5,25,11.66,11.66,0,0,1,33,16.4,11.68,11.68,0,0,1,36.5,7.83Zm8.57,18a8.91,8.91,0,0,0,7.13-3.32,5.5,5.5,0,0,0-2-2.13,5.21,5.21,0,0,0-2.83-.8,1.12,1.12,0,0,0-.34,0,6.23,6.23,0,0,1-2,.34,6.33,6.33,0,0,1-2-.34,1.12,1.12,0,0,0-.34,0,5.24,5.24,0,0,0-2.83.8,5.4,5.4,0,0,0-2,2.13A8.89,8.89,0,0,0,45.07,25.78Zm3-15.53a4.24,4.24,0,0,0-6.05,0,4.25,4.25,0,0,0,0,6.06,4.3,4.3,0,0,0,7.32-3A4.13,4.13,0,0,0,48.09,10.25Z"/><rect class="cls-3" x="6" y="9" width="22" height="3" rx="1.5"/><rect class="cls-3" x="6" y="15" width="22" height="3" rx="1.5"/><rect class="cls-3" x="6" y="21" width="22" height="3" rx="1.5"/></g></g></svg>