<svg xmlns="http://www.w3.org/2000/svg" viewBox="0 0 34 25.5"><defs><style>.cls-1{fill:#909090;}</style></defs><g id="Layer_2" data-name="Layer 2"><g id="Layer_1-2" data-name="Layer 1"><path class="cls-1" d="M34,8.43,33.58,10a.8.8,0,0,1-.78.61H31.47a4.21,4.21,0,0,1,1.47,3.18V17a4.16,4.16,0,0,1-1.07,2.78v3.6a2.12,2.12,0,0,1-2.12,2.12H27.62a2.12,2.12,0,0,1-2.12-2.12V21.25H8.5v2.13A2.12,2.12,0,0,1,6.37,25.5H4.25a2.13,2.13,0,0,1-2.13-2.12v-3.6A4.2,4.2,0,0,1,1.06,17V13.81a4.21,4.21,0,0,1,1.47-3.18H1.2A.8.8,0,0,1,.42,10L0,8.43a.8.8,0,0,1,.78-1h4L5.88,4.67A7.38,7.38,0,0,1,12.78,0h8.44a7.38,7.38,0,0,1,6.9,4.67l1.11,2.77h4A.8.8,0,0,1,34,8.43ZM9.56,15.93a4.09,4.09,0,0,0-3.19-3.18,2,2,0,0,0-2.12,2.12A2,2,0,0,0,6.37,17C7.65,17,9.56,17.2,9.56,15.93ZM8.5,9.56h17L24.18,6.25a3.19,3.19,0,0,0-3-2H12.78a3.19,3.19,0,0,0-3,2Zm21.25,5.31a2,2,0,0,0-2.13-2.12,4.09,4.09,0,0,0-3.18,3.18c0,1.27,1.91,1.06,3.18,1.06A2,2,0,0,0,29.75,14.87Z"/></g></g></svg>