<svg xmlns="http://www.w3.org/2000/svg" viewBox="0 0 24 24"><defs><style>.cls-1{fill:#cf152d;}.cls-2{fill:#fff;}</style></defs><g id="Layer_2" data-name="Layer 2"><g id="Layer_1-2" data-name="Layer 1"><circle class="cls-1" cx="12" cy="12" r="12"/><path class="cls-2" d="M14.18,12l3.24,3.25a.94.94,0,0,1,.3.71,1.08,1.08,0,0,1-.3.75l-.71.71a1.08,1.08,0,0,1-.75.3.94.94,0,0,1-.71-.3L12,14.18,8.75,17.42a.94.94,0,0,1-.71.3,1.08,1.08,0,0,1-.75-.3l-.71-.71a1.08,1.08,0,0,1-.3-.75.94.94,0,0,1,.3-.71L9.82,12,6.58,8.75A.94.94,0,0,1,6.28,8a1.08,1.08,0,0,1,.3-.75l.71-.71A1.08,1.08,0,0,1,8,6.28a.94.94,0,0,1,.71.3L12,9.82l3.25-3.24a.94.94,0,0,1,.71-.3,1.08,1.08,0,0,1,.75.3l.71.71a1.08,1.08,0,0,1,.3.75.94.94,0,0,1-.3.71Z"/></g></g></svg>