<svg xmlns="http://www.w3.org/2000/svg" viewBox="0 0 43.74 50.04"><g id="Layer_2" data-name="Layer 2"><g id="Layer_1-2" data-name="Layer 1"><path d="M42.77,39.55a3.52,3.52,0,0,1,.92,3A3.76,3.76,0,0,1,42,45.31l-6.16,4a3.78,3.78,0,0,1-1.36.63,3.26,3.26,0,0,1-1.23,0,5.09,5.09,0,0,1-1.07-.34,3.78,3.78,0,0,1-.83-.49c-.19-.16-.36-.31-.49-.44l-9-9.67L13,48.73a8,8,0,0,1-1.12.73A5.92,5.92,0,0,1,10.1,50a2.69,2.69,0,0,1-2.2-.68l-6.15-4A3.74,3.74,0,0,1,0,42.58a3.56,3.56,0,0,1,.93-3L11.61,28,7.9,24.12a11.15,11.15,0,0,1-2.83-6.35A10.29,10.29,0,0,1,6.63,11L9.86,5.76A10.55,10.55,0,0,1,16,.88,18.49,18.49,0,0,1,21.92,0a18.42,18.42,0,0,1,5.9.88,10.61,10.61,0,0,1,6.06,4.88l3,4.88a11.7,11.7,0,0,1,1.75,7.08,10.29,10.29,0,0,1-2.83,6.4L32.22,28ZM10,45.12l8.7-9.48-3.91-4.19L5.17,41.89Zm23.83,0L38.57,42,14.15,15.33a11,11,0,0,1-2.44-3.51l-1.07,1.66a6.07,6.07,0,0,0-.88,3.85,5.89,5.89,0,0,0,1.56,3.57ZM17.38,5.27a6.55,6.55,0,0,0-2.45,1.57,10.59,10.59,0,0,0,2.64,5.27l4.3,4.69,4.29-4.59A10.69,10.69,0,0,0,28.8,6.84a7.73,7.73,0,0,0-2.44-1.57A15.11,15.11,0,0,0,17.38,5.27ZM32,11.72a11.63,11.63,0,0,1-2.53,3.71l-4.4,4.88L29,24.61l3.41-3.71A5.8,5.8,0,0,0,34,17.24a6.88,6.88,0,0,0-1.13-4.15Z"/></g></g></svg>