<svg xmlns="http://www.w3.org/2000/svg" viewBox="0 0 24 24"><defs><style>.cls-1{fill:#fff;}.cls-2{fill:#49aa52;}</style></defs><g id="Layer_2" data-name="Layer 2"><g id="Layer_1-2" data-name="Layer 1"><ellipse class="cls-1" cx="12" cy="11.75" rx="11.35" ry="10.84"/><path class="cls-2" d="M12,24A12,12,0,1,1,24,12,12,12,0,0,1,12,24ZM19.52,9.45a.77.77,0,0,0,0-1.09l-1.1-1.1a.77.77,0,0,0-1.09,0l-7.27,7.26L6.67,11.13a.77.77,0,0,0-1.09,0l-1.1,1.1a.77.77,0,0,0,0,1.09l5,5a.76.76,0,0,0,1.09,0Z"/></g></g></svg>