<svg xmlns="http://www.w3.org/2000/svg" viewBox="0 0 50.04 37.5"><g id="Layer_2" data-name="Layer 2"><g id="Layer_1-2" data-name="Layer 1"><path d="M48.85,12.5a1.13,1.13,0,0,1,.93.44A1.22,1.22,0,0,1,50,14l-.58,2.35a1.17,1.17,0,0,1-1.18.88H47.19a9.37,9.37,0,0,1,1.27,4.69V35.16a2.32,2.32,0,0,1-2.34,2.34H44.55a2.32,2.32,0,0,1-2.34-2.34V32.81H7.83v2.35a2.25,2.25,0,0,1-.68,1.66,2.29,2.29,0,0,1-1.66.68H3.93a2.27,2.27,0,0,1-1.66-.68,2.26,2.26,0,0,1-.69-1.66V21.88a9.47,9.47,0,0,1,1.27-4.69H1.78a1.15,1.15,0,0,1-1.17-.88L0,14a1.26,1.26,0,0,1,.25-1,1.1,1.1,0,0,1,.92-.44H6.27L9.4,4.88a8,8,0,0,1,1.66-2.59A7.14,7.14,0,0,1,13.6.59a8,8,0,0,1,3-.59h16.8a7.64,7.64,0,0,1,4.39,1.32,7.51,7.51,0,0,1,2.84,3.56l3.12,7.62ZM43.77,26.56V21.88a4.66,4.66,0,0,0-4.69-4.69H11a4.66,4.66,0,0,0-4.69,4.69v4.68a1.55,1.55,0,0,0,.44,1.13,1.53,1.53,0,0,0,1.12.44H42.21a1.53,1.53,0,0,0,1.12-.44A1.51,1.51,0,0,0,43.77,26.56ZM10.28,20.41a3,3,0,0,1,2.24-.88,4.68,4.68,0,0,1,3,1.61,4.49,4.49,0,0,1,1.66,3.08,1.45,1.45,0,0,1-.15.68.89.89,0,0,1-.49.44c-.22.1-.43.18-.63.25a4.14,4.14,0,0,1-.83.14,7.45,7.45,0,0,1-.83.05H12.52A3,3,0,0,1,9.4,22.66,3,3,0,0,1,10.28,20.41ZM13.69,6.64,11.35,12.5H38.69L36.35,6.64a2.9,2.9,0,0,0-2.93-1.95H16.62A2.9,2.9,0,0,0,13.69,6.64Zm20.8,14.5a4.68,4.68,0,0,1,3-1.61,3,3,0,0,1,2.25.88,3.08,3.08,0,0,1,.88,2.25,3,3,0,0,1-3.13,3.12H35.76a7.58,7.58,0,0,1-.83-.05,4.27,4.27,0,0,1-.83-.14l-.63-.25A.93.93,0,0,1,33,24.9a1.45,1.45,0,0,1-.15-.68A4.53,4.53,0,0,1,34.49,21.14Z"/></g></g></svg>