<svg xmlns="http://www.w3.org/2000/svg" viewBox="0 0 43.75 50"><g id="Layer_2" data-name="Layer 2"><g id="Layer_1-2" data-name="Layer 1"><path d="M43.75,45.31A4.69,4.69,0,0,1,39.06,50H4.69A4.69,4.69,0,0,1,0,45.31V10.94A4.69,4.69,0,0,1,4.69,6.25H9.38V1.17A1.17,1.17,0,0,1,10.55,0h3.9a1.18,1.18,0,0,1,1.18,1.17V6.25h12.5V1.17A1.17,1.17,0,0,1,29.3,0h3.9a1.18,1.18,0,0,1,1.18,1.17V6.25h4.68a4.69,4.69,0,0,1,4.69,4.69ZM39.06,15.63H4.69v29.1a.58.58,0,0,0,.58.58H38.48a.58.58,0,0,0,.58-.58ZM10.55,28.13A1.17,1.17,0,0,1,9.38,27v-3.9a1.17,1.17,0,0,1,1.17-1.17h3.9a1.17,1.17,0,0,1,1.18,1.17V27a1.18,1.18,0,0,1-1.18,1.18Zm3.9,9.37h-3.9a1.17,1.17,0,0,1-1.17-1.17V32.42a1.17,1.17,0,0,1,1.17-1.17h3.9a1.18,1.18,0,0,1,1.18,1.17v3.91A1.18,1.18,0,0,1,14.45,37.5Zm9.38-9.37H19.92A1.18,1.18,0,0,1,18.75,27v-3.9a1.17,1.17,0,0,1,1.17-1.17h3.91A1.17,1.17,0,0,1,25,23.05V27A1.18,1.18,0,0,1,23.83,28.13Zm0,9.37H19.92a1.18,1.18,0,0,1-1.17-1.17V32.42a1.18,1.18,0,0,1,1.17-1.17h3.91A1.18,1.18,0,0,1,25,32.42v3.91A1.18,1.18,0,0,1,23.83,37.5Zm9.37-9.37H29.3A1.17,1.17,0,0,1,28.13,27v-3.9a1.17,1.17,0,0,1,1.17-1.17h3.9a1.17,1.17,0,0,1,1.18,1.17V27A1.18,1.18,0,0,1,33.2,28.13Zm0,9.37H29.3a1.17,1.17,0,0,1-1.17-1.17V32.42a1.17,1.17,0,0,1,1.17-1.17h3.9a1.18,1.18,0,0,1,1.18,1.17v3.91A1.18,1.18,0,0,1,33.2,37.5Z"/></g></g></svg>