<svg xmlns="http://www.w3.org/2000/svg" viewBox="0 0 50.04 40"><g id="Layer_2" data-name="Layer 2"><g id="Layer_1-2" data-name="Layer 1"><path d="M24.53,23.75a10,10,0,0,1,7.38,3.09A10,10,0,0,1,35,34.22v2A3.72,3.72,0,0,1,31.25,40H3.75a3.66,3.66,0,0,1-2.66-1.09A3.62,3.62,0,0,1,0,36.25v-2a10,10,0,0,1,3.09-7.38,10,10,0,0,1,7.38-3.09,11.34,11.34,0,0,1,3,.62,13.14,13.14,0,0,0,8,0A11.34,11.34,0,0,1,24.53,23.75Zm6.72,12.5v-2a6.8,6.8,0,0,0-6.72-6.72,24.6,24.6,0,0,0-2.46.62,16.89,16.89,0,0,1-9.14,0,23.87,23.87,0,0,0-2.46-.62,6.46,6.46,0,0,0-4.73,2,6.46,6.46,0,0,0-2,4.73v2Zm-5.78-17a10.84,10.84,0,0,1-8,3.28,10.85,10.85,0,0,1-8-3.28,10.85,10.85,0,0,1-3.28-8,10.84,10.84,0,0,1,3.28-8A10.85,10.85,0,0,1,17.5,0a10.84,10.84,0,0,1,8,3.28,10.84,10.84,0,0,1,3.28,8A10.85,10.85,0,0,1,25.47,19.22ZM22.81,5.94A7.23,7.23,0,0,0,17.5,3.75a7.23,7.23,0,0,0-5.31,2.19A7.23,7.23,0,0,0,10,11.25a7.23,7.23,0,0,0,2.19,5.31,7.23,7.23,0,0,0,5.31,2.19,7.23,7.23,0,0,0,5.31-2.19A7.23,7.23,0,0,0,25,11.25,7.23,7.23,0,0,0,22.81,5.94Zm27,6.64a.77.77,0,0,1,0,1.17L39.61,23.91a.64.64,0,0,1-1.09,0l-5.79-5.79a.77.77,0,0,1,0-1.17l1.49-1.48a.7.7,0,0,1,1.17,0l3.67,3.75,8-8.13a.71.71,0,0,1,1.17,0Z"/></g></g></svg>