<svg xmlns="http://www.w3.org/2000/svg" viewBox="0 0 26 26"><defs><style>.cls-1{fill:#131313;}</style></defs><g id="Layer_2" data-name="Layer 2"><g id="Layer_1-2" data-name="Layer 1"><path class="cls-1" d="M25.64,22.5a1.21,1.21,0,0,1,0,1.72l-1.42,1.42a1.21,1.21,0,0,1-1.72,0l-5.08-5.07a1.19,1.19,0,0,1-.36-.87v-.81a10.22,10.22,0,0,1-6.5,2.24A10.18,10.18,0,0,1,3.1,18,10.18,10.18,0,0,1,0,10.56,10.14,10.14,0,0,1,3.1,3.1,10.14,10.14,0,0,1,10.56,0,10.18,10.18,0,0,1,18,3.1a10.18,10.18,0,0,1,3.1,7.46,10.22,10.22,0,0,1-2.24,6.5h.81a1.19,1.19,0,0,1,.87.36ZM6,15.16a6.25,6.25,0,0,0,4.59,1.9,6.26,6.26,0,0,0,4.6-1.9,6.26,6.26,0,0,0,1.9-4.6A6.25,6.25,0,0,0,15.16,6a6.27,6.27,0,0,0-4.6-1.91A6.26,6.26,0,0,0,6,6a6.26,6.26,0,0,0-1.91,4.59A6.27,6.27,0,0,0,6,15.16Z"/></g></g></svg>