<svg xmlns="http://www.w3.org/2000/svg" viewBox="0 0 60 60"><g id="Layer_2" data-name="Layer 2"><g id="Layer_1-2" data-name="Layer 1"><path d="M60,30A30,30,0,1,1,30,0,30,30,0,0,1,60,30Zm-5.81,0A24.19,24.19,0,1,0,10.32,44,16.06,16.06,0,0,1,23,37.74c1.24,0,3.16,1.16,7,1.16s5.73-1.16,7-1.16A16,16,0,0,1,49.68,44,24,24,0,0,0,54.19,30ZM45.74,48.34a10.46,10.46,0,0,0-8.42-4.78A24.13,24.13,0,0,1,30,44.72a24.76,24.76,0,0,1-7.32-1.16,10.43,10.43,0,0,0-8.42,4.78,24.1,24.1,0,0,0,31.48,0ZM41.61,23.23A11.61,11.61,0,1,1,30,11.61,11.61,11.61,0,0,1,41.61,23.23Zm-5.8,0A5.81,5.81,0,1,0,30,29,5.81,5.81,0,0,0,35.81,23.23Z"/></g></g></svg>